<svg width="41" height="41" viewBox="0 0 41 41" fill="none" xmlns="http://www.w3.org/2000/svg">
<path d="M20.5 0.8125C15.2981 0.875439 10.327 2.96986 6.64843 6.64843C2.96986 10.327 0.875439 15.2981 0.8125 20.5C0.875439 25.7019 2.96986 30.673 6.64843 34.3516C10.327 38.0301 15.2981 40.1246 20.5 40.1875C25.7019 40.1246 30.673 38.0301 34.3516 34.3516C38.0301 30.673 40.1246 25.7019 40.1875 20.5C40.1246 15.2981 38.0301 10.327 34.3516 6.64843C30.673 2.96986 25.7019 0.875439 20.5 0.8125ZM31.75 21.9062H21.9062V31.75H19.0938V21.9062H9.25V19.0938H19.0938V9.25H21.9062V19.0938H31.75V21.9062Z" fill="#425FF6"/>
</svg>
