<svg width="22" height="22" viewBox="0 0 22 22" fill="none" xmlns="http://www.w3.org/2000/svg">
<rect width="22" height="22" fill="white" style="mix-blend-mode:multiply"/>
<path d="M11 1.375C5.6375 1.375 1.375 5.6375 1.375 11C1.375 16.3625 5.6375 20.625 11 20.625C16.3625 20.625 20.625 16.3625 20.625 11C20.625 5.6375 16.3625 1.375 11 1.375ZM11 19.25C6.4625 19.25 2.75 15.5375 2.75 11C2.75 6.4625 6.4625 2.75 11 2.75C15.5375 2.75 19.25 6.4625 19.25 11C19.25 15.5375 15.5375 19.25 11 19.25Z" fill="#9F0000"/>
<path d="M14.7125 15.8125L11 12.1L7.2875 15.8125L6.1875 14.7125L9.9 11L6.1875 7.2875L7.2875 6.1875L11 9.9L14.7125 6.1875L15.8125 7.2875L12.1 11L15.8125 14.7125L14.7125 15.8125Z" fill="#9F0000"/>
</svg>
