<svg width="16" height="16" viewBox="0 0 16 16" fill="none" xmlns="http://www.w3.org/2000/svg">
<rect width="16" height="16" fill="white" style="mix-blend-mode:multiply"/>
<path d="M13 2.00488H3C2.73478 2.00488 2.48043 2.11024 2.29289 2.29778C2.10536 2.48531 2 2.73967 2 3.00488V13.0049C2 13.2701 2.10536 13.5245 2.29289 13.712C2.48043 13.8995 2.73478 14.0049 3 14.0049H13C13.2652 14.0049 13.5196 13.8995 13.7071 13.712C13.8946 13.5245 14 13.2701 14 13.0049V3.00488C14 2.73967 13.8946 2.48531 13.7071 2.29778C13.5196 2.11024 13.2652 2.00488 13 2.00488ZM13 3.00488V5.00488H3V3.00488H13ZM3 13.0049V6.00488H13V13.0049H3Z" fill="#161616"/>
<path d="M5.38 8.08988L6.79 9.50488L5.38 10.9199L6.085 11.6249L8.205 9.50488L6.085 7.38488L5.38 8.08988Z" fill="#161616"/>
</svg>
