<svg width="36" height="36" viewBox="0 0 36 36" fill="none" xmlns="http://www.w3.org/2000/svg">
<rect width="36" height="36" fill="white" style="mix-blend-mode:multiply"/>
<path d="M31.5 9H23.4319L19.5911 5.15914C19.3822 4.95017 19.1341 4.78441 18.8611 4.67131C18.5881 4.55822 18.2955 4.5 18 4.5H4.5C3.90326 4.5 3.33097 4.73705 2.90901 5.15901C2.48705 5.58097 2.25 6.15326 2.25 6.75V29.25C2.25 29.8467 2.48705 30.419 2.90901 30.841C3.33097 31.2629 3.90326 31.5 4.5 31.5H31.5C32.0967 31.5 32.669 31.2629 33.091 30.841C33.5129 30.419 33.75 29.8467 33.75 29.25V11.25C33.75 10.6533 33.5129 10.081 33.091 9.65901C32.669 9.23705 32.0967 9 31.5 9ZM9 29.25V15.75H18V22.6912L15.0863 19.7887L13.5 21.375L19.125 27L24.75 21.375L23.1637 19.7887L20.25 22.6912V15.75C20.2493 15.1535 20.012 14.5816 19.5902 14.1598C19.1684 13.738 18.5965 13.5007 18 13.5H9C8.40349 13.5007 7.83163 13.738 7.40983 14.1598C6.98804 14.5816 6.75074 15.1535 6.75 15.75V29.25H4.5V6.75H18L22.5 11.25H31.5V13.5H24.75V15.75H31.5V29.25H9Z" fill="white"/>
</svg>
