<svg width="36" height="36" viewBox="0 0 36 36" fill="none" xmlns="http://www.w3.org/2000/svg">
<rect width="36" height="36" fill="white" style="mix-blend-mode:multiply"/>
<path d="M11.25 15.7501C12.4926 15.7501 13.5 14.7427 13.5 13.5001C13.5 12.2574 12.4926 11.2501 11.25 11.2501C10.0074 11.2501 9 12.2574 9 13.5001C9 14.7427 10.0074 15.7501 11.25 15.7501Z" fill="white"/>
<path d="M18 12.3751C19.2426 12.3751 20.25 11.3677 20.25 10.1251C20.25 8.88242 19.2426 7.87506 18 7.87506C16.7574 7.87506 15.75 8.88242 15.75 10.1251C15.75 11.3677 16.7574 12.3751 18 12.3751Z" fill="white"/>
<path d="M24.75 15.7501C25.9926 15.7501 27 14.7427 27 13.5001C27 12.2574 25.9926 11.2501 24.75 11.2501C23.5074 11.2501 22.5 12.2574 22.5 13.5001C22.5 14.7427 23.5074 15.7501 24.75 15.7501Z" fill="white"/>
<path d="M25.875 22.5001C27.1176 22.5001 28.125 21.4927 28.125 20.2501C28.125 19.0074 27.1176 18.0001 25.875 18.0001C24.6324 18.0001 23.625 19.0074 23.625 20.2501C23.625 21.4927 24.6324 22.5001 25.875 22.5001Z" fill="white"/>
<path d="M21.375 28.1251C22.6176 28.1251 23.625 27.1177 23.625 25.8751C23.625 24.6324 22.6176 23.6251 21.375 23.6251C20.1324 23.6251 19.125 24.6324 19.125 25.8751C19.125 27.1177 20.1324 28.1251 21.375 28.1251Z" fill="white"/>
<path d="M18.6075 2.25006C16.4886 2.16827 14.3751 2.51518 12.3935 3.26999C10.412 4.0248 8.60322 5.17197 7.07574 6.64272C5.54826 8.11347 4.3335 9.87752 3.50427 11.8291C2.67504 13.7807 2.24843 15.8796 2.25 18.0001C2.24995 18.8341 2.44226 19.6568 2.81199 20.4044C3.18172 21.1519 3.7189 21.8041 4.38176 22.3102C5.04462 22.8164 5.81528 23.1628 6.63383 23.3225C7.45237 23.4823 8.29674 23.4511 9.10125 23.2313L10.3613 22.8826C10.8625 22.7457 11.3886 22.7265 11.8984 22.8263C12.4083 22.9261 12.8883 23.1423 13.3009 23.4581C13.7136 23.7738 14.0477 24.1806 14.2774 24.6466C14.5071 25.1127 14.626 25.6255 14.625 26.1451V30.3751C14.625 31.2702 14.9806 32.1286 15.6135 32.7615C16.2465 33.3945 17.1049 33.7501 18 33.7501C20.1205 33.7516 22.2194 33.325 24.171 32.4958C26.1226 31.6666 27.8866 30.4518 29.3573 28.9243C30.8281 27.3968 31.9753 25.5881 32.7301 23.6066C33.4849 21.625 33.8318 19.5114 33.75 17.3926C33.5868 13.4288 31.939 9.67139 29.1338 6.86622C26.3287 4.06106 22.5712 2.41329 18.6075 2.25006ZM27.7313 27.3488C26.4751 28.664 24.9648 29.7101 23.2919 30.4238C21.6191 31.1374 19.8187 31.5035 18 31.5001C17.7016 31.5001 17.4155 31.3815 17.2045 31.1706C16.9935 30.9596 16.875 30.6734 16.875 30.3751V26.1451C16.875 24.6532 16.2824 23.2225 15.2275 22.1676C14.1726 21.1127 12.7418 20.5201 11.25 20.5201C10.7445 20.521 10.2413 20.5891 9.75375 20.7226L8.49375 21.0713C8.02314 21.1974 7.52981 21.2135 7.052 21.1182C6.57419 21.0229 6.12475 20.8188 5.73853 20.5218C5.35231 20.2248 5.03969 19.8428 4.8249 19.4055C4.61012 18.9682 4.49895 18.4873 4.5 18.0001C4.49861 16.1818 4.86452 14.3821 5.57578 12.7087C6.28704 11.0354 7.329 9.52296 8.63914 8.26221C9.94927 7.00145 11.5006 6.01834 13.2 5.37186C14.8994 4.72538 16.7119 4.42885 18.5288 4.50006C21.9118 4.67627 25.1097 6.09944 27.5052 8.49489C29.9006 10.8903 31.3238 14.0882 31.5 17.4713C31.5774 19.2893 31.2832 21.1039 30.6351 22.8042C29.9871 24.5046 28.999 26.0548 27.7313 27.3601V27.3488Z" fill="white"/>
</svg>
