<svg width="36" height="36" viewBox="0 0 36 36" fill="none" xmlns="http://www.w3.org/2000/svg">
<rect width="36" height="36" fill="white" style="mix-blend-mode:multiply"/>
<path d="M34.875 33.2841L29.6004 28.0097C31.0102 26.1952 31.6753 23.9117 31.4605 21.624C31.2456 19.3363 30.1668 17.2165 28.4439 15.6963C26.7209 14.1761 24.4833 13.3697 22.1867 13.4415C19.89 13.5132 17.7071 14.4576 16.0823 16.0823C14.4576 17.7071 13.5132 19.89 13.4415 22.1867C13.3697 24.4833 14.1761 26.7209 15.6963 28.4439C17.2165 30.1668 19.3363 31.2456 21.624 31.4605C23.9117 31.6753 26.1952 31.0102 28.0097 29.6004L33.2841 34.875L34.875 33.2841ZM22.5 29.25C21.165 29.25 19.8599 28.8541 18.7499 28.1124C17.6399 27.3707 16.7747 26.3165 16.2638 25.0831C15.7529 23.8497 15.6192 22.4925 15.8797 21.1831C16.1402 19.8738 16.783 18.671 17.727 17.727C18.671 16.783 19.8738 16.1402 21.1831 15.8797C22.4925 15.6192 23.8497 15.7529 25.0831 16.2638C26.3165 16.7747 27.3707 17.6399 28.1124 18.7499C28.8541 19.8599 29.25 21.165 29.25 22.5C29.248 24.2896 28.5362 26.0054 27.2708 27.2708C26.0054 28.5362 24.2896 29.248 22.5 29.25Z" fill="white"/>
<path d="M9 29.25H4.5C3.90345 29.2494 3.33152 29.0121 2.9097 28.5903C2.48788 28.1685 2.25063 27.5965 2.25 27V22.5H4.5V27H9V29.25Z" fill="white"/>
<path d="M4.5 13.5H2.25V18H4.5V13.5Z" fill="white"/>
<path d="M29.25 9H27V4.5H22.5V2.25H27C27.5965 2.25063 28.1685 2.48788 28.5903 2.9097C29.0121 3.33152 29.2494 3.90345 29.25 4.5V9Z" fill="white"/>
<path d="M18 2.25H13.5V4.5H18V2.25Z" fill="white"/>
<path d="M4.5 9H2.25V4.5C2.25063 3.90345 2.48788 3.33152 2.9097 2.9097C3.33152 2.48788 3.90345 2.25063 4.5 2.25H9V4.5H4.5V9Z" fill="white"/>
</svg>
